<?xml version="1.0" encoding="utf-8"?>
<!-- Generator: Adobe Illustrator 23.0.1, SVG Export Plug-In . SVG Version: 6.00 Build 0)  -->
<svg version="1.1" id="Layer_1" xmlns="http://www.w3.org/2000/svg" xmlns:xlink="http://www.w3.org/1999/xlink" x="0px" y="0px"
	 viewBox="0 0 1920 1080" style="enable-background:new 0 0 1920 1080;" xml:space="preserve">
<style type="text/css">
	.st0{fill:#25386E;}
	.st1{fill:#325093;}
</style>
<g>
	<path class="st0" d="M935.6,979.6c-121.4,0-239.2-23.8-350-70.7c-107.1-45.3-203.2-110.1-285.8-192.7
		c-82.6-82.6-147.4-178.8-192.7-285.8c-46.9-110.9-70.7-228.6-70.7-350V1.4h1855.2v78.9c0,121.4-23.8,239.2-70.7,350
		c-45.3,107.1-110.1,203.2-192.7,285.8s-178.8,147.4-285.8,192.7c-110.9,46.9-228.6,70.7-350,70.7H935.6z"/>
	<path class="st1" d="M1890.2,2.8v77.5c0,60.9-6.1,121.8-18.2,180.9c-11.8,57.6-29.4,114.3-52.3,168.5
		c-22.5,53.2-50.4,104.5-82.8,152.5c-32.1,47.5-69,92.2-109.6,132.9c-40.6,40.6-85.3,77.5-132.9,109.6
		c-48,32.4-99.3,60.3-152.5,82.8c-54.2,22.9-110.9,40.5-168.5,52.3c-59.1,12.1-120,18.2-180.9,18.2h-56.7
		c-60.9,0-121.8-6.1-180.9-18.2c-57.6-11.8-114.3-29.4-168.5-52.3c-53.2-22.5-104.5-50.4-152.5-82.8c-47.5-32.1-92.2-69-132.9-109.6
		c-40.6-40.6-77.5-85.3-109.6-132.9c-32.4-48-60.3-99.3-82.8-152.5c-22.9-54.2-40.5-110.9-52.3-168.5C44,202.2,37.8,141.3,37.8,80.4
		V2.8H1890.2 M1893,0H35v80.4C35,577.8,438.2,981,935.6,981h56.7c497.4,0,900.6-403.2,900.6-900.6V0L1893,0z"/>
</g>
</svg>
